<?xml version="1.0" encoding="UTF-8" standalone="no"?>
<svg
   xmlns:dc="http://purl.org/dc/elements/1.1/"
   xmlns:cc="http://creativecommons.org/ns#"
   xmlns:rdf="http://www.w3.org/1999/02/22-rdf-syntax-ns#"
   xmlns:svg="http://www.w3.org/2000/svg"
   xmlns="http://www.w3.org/2000/svg"
   xmlns:xlink="http://www.w3.org/1999/xlink"
   id="svg4207"
   version="1.1"
   width="298.17044"
   height="257.20093">
  <title
     id="title4851">Bitcoin Cash Token</title>
  <metadata
     id="metadata4219">
    <rdf:RDF>
      <cc:Work
         rdf:about="">
        <dc:format>image/svg+xml</dc:format>
        <dc:type
           rdf:resource="http://purl.org/dc/dcmitype/StillImage" />
        <dc:title>Bitcoin Cash Token</dc:title>
        <cc:license
           rdf:resource="http://creativecommons.org/publicdomain/zero/1.0/" />
        <dc:creator>
          <cc:Agent>
            <dc:title>Andrew Stone</dc:title>
          </cc:Agent>
        </dc:creator>
      </cc:Work>
      <cc:License
         rdf:about="http://creativecommons.org/publicdomain/zero/1.0/">
        <cc:permits
           rdf:resource="http://creativecommons.org/ns#Reproduction" />
        <cc:permits
           rdf:resource="http://creativecommons.org/ns#Distribution" />
        <cc:permits
           rdf:resource="http://creativecommons.org/ns#DerivativeWorks" />
      </cc:License>
    </rdf:RDF>
  </metadata>
  <defs
     id="defs4217">
    <marker
       orient="auto"
       refY="0"
       refX="0"
       id="InfiniteLineStart"
       style="overflow:visible">
      <g
         transform="translate(-13,0)"
         style="fill:#1fc71a;fill-opacity:1;stroke:#081a0e;stroke-opacity:0.481982"
         id="g4583">
        <circle
           style="fill:#1fc71a;fill-opacity:1;stroke:#081a0e;stroke-opacity:0.481982"
           cx="3"
           cy="0"
           r="0.80000001"
           id="circle4585" />
        <circle
           style="fill:#1fc71a;fill-opacity:1;stroke:#081a0e;stroke-opacity:0.481982"
           cx="6.5"
           cy="0"
           r="0.80000001"
           id="circle4587" />
        <circle
           style="fill:#1fc71a;fill-opacity:1;stroke:#081a0e;stroke-opacity:0.481982"
           cx="10"
           cy="0"
           r="0.80000001"
           id="circle4589" />
      </g>
    </marker>
    <marker
       style="overflow:visible"
       id="Arrow2Sstart"
       refX="0"
       refY="0"
       orient="auto">
      <path
         transform="matrix(0.3,0,0,0.3,-0.69,0)"
         d="M 8.7185878,4.0337352 -2.2072895,0.01601326 8.7185884,-4.0017078 c -1.7454984,2.3720609 -1.7354408,5.6174519 -6e-7,8.035443 z"
         style="fill:#1fc71a;fill-opacity:1;fill-rule:evenodd;stroke:#081a0e;stroke-width:0.625;stroke-linejoin:round;stroke-opacity:0.481982"
         id="path4369" />
    </marker>
    <marker
       style="overflow:visible"
       id="Arrow1Mstart"
       refX="0"
       refY="0"
       orient="auto">
      <path
         transform="matrix(0.4,0,0,0.4,4,0)"
         style="fill:#394d1a;fill-opacity:1;fill-rule:evenodd;stroke:#081a0e;stroke-width:1pt;stroke-opacity:0.481982"
         d="M 0,0 5,-5 -12.5,0 5,5 0,0 Z"
         id="path4345" />
    </marker>
    <linearGradient
       id="linearGradient4250">
      <stop
         id="stop4252"
         offset="0"
         style="stop-color:#394d1a;stop-opacity:1" />
      <stop
         id="stop4254"
         offset="1"
         style="stop-color:#1fc71a;stop-opacity:1" />
    </linearGradient>
    <linearGradient
       gradientTransform="matrix(4,0,0,4,22.212017,0.57387494)"
       gradientUnits="userSpaceOnUse"
       y2="31.975628"
       x2="61.538723"
       y1="31.975628"
       x1="1.6326411"
       id="linearGradient4333"
       xlink:href="#linearGradient4250" />
    <radialGradient
       gradientUnits="userSpaceOnUse"
       gradientTransform="matrix(-3.9790838,-4.135796,4.3199924,-4.1559332,-14.258411,403.86538)"
       r="31.996592"
       fy="60.206947"
       fx="40.93697"
       cy="60.206947"
       cx="40.93697"
       id="radialGradient4256-9"
       xlink:href="#linearGradient4250" />
    <filter
       height="1.0437249"
       y="-0.021862466"
       width="1.0532016"
       x="-0.02660081"
       id="filter4728"
       style="color-interpolation-filters:sRGB">
      <feGaussianBlur
         id="feGaussianBlur4730"
         stdDeviation="0.3684473" />
    </filter>
    <filter
       height="1.0569536"
       y="-0.028476806"
       width="1.0414791"
       x="-0.020739558"
       id="filter6727"
       style="color-interpolation-filters:sRGB">
      <feGaussianBlur
         id="feGaussianBlur6729"
         stdDeviation="0.83870478" />
    </filter>
    <filter
       height="1.0334804"
       y="-0.016740194"
       width="1.0187038"
       x="-0.0093518948"
       id="filter6788"
       style="color-interpolation-filters:sRGB">
      <feGaussianBlur
         id="feGaussianBlur6790"
         stdDeviation="0.70770806" />
    </filter>
  </defs>
  <g
     transform="translate(19.132097,-1.2056245)"
     style="display:inline"
     id="flag">
    <path
       id="rect4213"
       d="M -18.644531,6.7265625 V 252.58789 H 71.390625 A 136.31326,136.31326 0 0 1 -6.361328,129.68164 136.31326,136.31326 0 0 1 71.412109,6.7265625 Z m 207.056641,0 A 136.31326,136.31326 0 0 1 266.26562,129.68164 136.31326,136.31326 0 0 1 188.60547,252.58789 h 89.94531 V 6.7265625 Z"
       style="fill:#197717;fill-opacity:1;stroke:#005e00;stroke-width:0.97513211;stroke-linejoin:round;stroke-miterlimit:4;stroke-dasharray:none;stroke-dashoffset:0;stroke-opacity:1" />
  </g>
  <g
     transform="translate(116.61982,96.293287)"
     style="display:inline"
     id="layer3">
    <path
       d="M 156.60516,63.272263 C 139.50916,131.84426 70.057159,173.57626 1.4771591,156.47626 -67.074842,139.38026 -108.80684,69.924263 -91.702842,1.3562626 -74.614842,-67.223734 -5.1628409,-108.95973 63.397159,-91.863734 c 68.576001,17.096 110.304001,86.5599966 93.208001,155.135997 z"
       id="edge"
       style="fill:none;fill-opacity:1;stroke:#426d42;stroke-width:1.20000005;stroke-linecap:round;stroke-linejoin:bevel;stroke-miterlimit:4;stroke-dasharray:none;stroke-dashoffset:10;stroke-opacity:1" />
    <path
       d="M 156.50516,63.172262 C 139.40916,131.74426 69.957157,173.47626 1.3771569,156.37626 -67.174845,139.28026 -108.90684,69.824262 -91.802845,1.2562625 -74.714845,-67.323737 -5.2628431,-109.05974 63.297157,-91.963737 c 68.576003,17.096 110.304003,86.5599995 93.208003,155.135999 z"
       id="faceshading"
       style="fill:url(#radialGradient4256-9);fill-opacity:1;stroke:none;stroke-width:1;stroke-linecap:round;stroke-linejoin:bevel;stroke-miterlimit:4;stroke-dasharray:1, 1;stroke-dashoffset:10;stroke-opacity:0.481982" />
  </g>
  <circle
     r="115.81416"
     cx="148.55475"
     cy="128.47638"
     id="faceinset"
     style="fill:#008000;fill-opacity:0.36036036;stroke:url(#linearGradient4333);stroke-width:7.99599981;stroke-linejoin:round;stroke-miterlimit:4;stroke-dasharray:none;stroke-dashoffset:0;stroke-opacity:0.6441441" />
  <g
     transform="translate(116.61982,96.293287)"
     style="display:inline"
     id="layer2">
    <path
       d="M 81.966386,-23.550562 C 73.660027,-42.66153 54.482219,-43.74174 32.370273,-38.639591 l -8.891473,-27.36326 -16.6552914,5.413564 8.6575944,26.641901 c -4.37841,1.42327 -8.8260893,2.964022 -13.2440122,4.497594 l -8.7114483,-26.819417 -16.6470825,5.408429 8.882237,27.357616 c -3.582153,1.245317 -7.101713,2.462945 -10.55406,3.5872 l -0.02952,-0.08412 -22.975099,7.456402 5.784381,17.7876049 c 0,0 12.223551,-4.2309102 12.092697,-3.9379788 6.747182,-2.19004195 10.215536,1.0131862 11.952389,4.1854677 L -7.838313,36.66359 c 0.4663824,-0.148734 1.0799782,-0.3267 1.7982439,-0.455928 -0.5546108,0.181064 -1.1497565,0.370308 -1.7587495,0.573927 L 6.3861953,80.452796 c 0.3937824,2.219444 0.2456784,6.010273 -4.4651759,7.549974 0.2744764,0.119548 -12.1086004,3.930796 -12.1086004,3.930796 l 3.153734,20.966654 21.675016,-7.04352 c 4.035175,-1.30582 8.02622,-2.52699 11.930566,-3.76818 l 8.999181,27.67262 16.638874,-5.4033 -8.897628,-27.382234 c 4.599012,-1.389903 9.031799,-2.79008 13.34659,-4.196429 l 8.8489,27.258593 16.655292,-5.41357 -8.970969,-27.627473 C 100.67186,76.291673 117.97844,62.869124 111.86813,35.782655 106.95321,13.970342 93.923118,7.7587784 76.78749,9.1064622 84.846549,1.0514819 88.06892,-9.5742783 81.96661,-23.550548 Z M 77.891203,43.19645 C 84.620328,63.875122 48.443554,73.028956 37.158915,76.70741 L 25.249084,40.03837 C 36.541413,36.372229 70.883575,21.624556 77.891203,43.19645 Z M 53.335623,-6.0196322 C 59.444148,12.798187 29.197241,20.198498 19.795003,23.254299 L 8.9904492,-10.001902 c 9.4022368,-3.055802 37.9663538,-15.642585 44.3451738,3.9822698 z"
       id="path4213-0"
       style="fill:none;stroke:#081a0e;stroke-width:4.84000015;stroke-opacity:0.05970148" />
  </g>
  <g
     transform="translate(6.2391469,7.6039603)"
     id="g6796">
    <path
       style="display:inline;fill:#f0f0f0;fill-opacity:1;stroke:none;stroke-width:0.36638322;stroke-opacity:0.1756757"
       id="whiteB"
       d="M 96.994241,85.990712 C 94.059191,78.730499 87.282724,78.32013 79.469479,80.258424 l -3.141797,-10.395239 -5.885139,2.0566 3.059157,10.121198 c -1.547109,0.540696 -3.118694,1.126024 -4.679765,1.708625 l -3.078186,-10.188635 -5.882238,2.054649 3.138534,10.393096 c -1.265751,0.473094 -2.509386,0.935668 -3.729272,1.36277 l -0.01043,-0.03196 -8.118238,2.83267 2.043907,6.757476 c 0,0 4.319186,-1.60732 4.272948,-1.49603 2.384114,-0.83199 3.609655,0.38491 4.223371,1.59005 l 3.579466,11.842236 c 0.164796,-0.0565 0.38161,-0.12412 0.635409,-0.17321 -0.195972,0.0688 -0.406266,0.14068 -0.621453,0.21803 l 5.012267,16.5906 c 0.139143,0.84316 0.08681,2.28329 -1.577768,2.86821 0.09699,0.0454 -4.278567,1.49331 -4.278567,1.49331 l 1.11437,7.96518 7.658855,-2.67582 c 1.425828,-0.49608 2.836061,-0.96 4.21566,-1.43152 l 3.179856,10.51276 5.879337,-2.0527 -3.143972,-10.40244 c 1.625058,-0.52803 3.191381,-1.05995 4.716011,-1.59422 l 3.126754,10.35548 5.885135,-2.0566 -3.16988,-10.49562 c 9.709999,-4.06682 15.825269,-9.16602 13.666189,-19.45611 -1.73668,-8.28645 -6.34086,-10.646196 -12.395719,-10.134216 2.84766,-3.06007 3.98629,-7.096776 1.83004,-12.406329 z m -1.43996,25.357038 c 2.37773,7.85578 -10.405316,11.3333 -14.392738,12.73073 L 76.953211,110.148 c 3.990139,-1.39276 16.124924,-6.99537 18.60107,1.19975 z M 86.877575,92.650674 c 2.158444,7.14884 -8.529285,9.960206 -11.85156,11.121096 L 71.20823,91.137817 c 3.322276,-1.160892 13.415392,-5.942582 15.669345,1.512857 z" />
    <path
       style="fill:none;fill-opacity:1;stroke:#000000;stroke-width:1.29702067;stroke-miterlimit:4;stroke-dasharray:none;stroke-opacity:0.31372549;filter:url(#filter4728)"
       id="path4213-9"
       d="M 42.040735,20.182697 C 40.324545,16.23415 36.362188,16.010966 31.793604,17.065129 l -1.837081,-5.653566 -3.441176,1.118505 1.788759,5.504525 c -0.90463,0.294064 -1.823572,0.612401 -2.736366,0.929255 l -1.799886,-5.541202 -3.43948,1.117444 1.835173,5.6524 c -0.740114,0.257297 -1.467296,0.508873 -2.180591,0.741157 l -0.0061,-0.01738 -4.746921,1.540579 1.19512,3.675125 c 0,0 2.525527,-0.874155 2.498491,-0.813632 1.394046,-0.452488 2.110648,0.209336 2.469502,0.864766 l 2.092997,6.440532 c 0.09636,-0.03073 0.223136,-0.0675 0.371538,-0.0942 -0.114589,0.03741 -0.237553,0.07651 -0.363378,0.11858 l 2.930788,9.022977 c 0.08136,0.458563 0.05076,1.241792 -0.922557,1.559912 0.05671,0.0247 -2.501777,0.812148 -2.501777,0.812148 l 0.651598,4.331954 4.478309,-1.455274 c 0.833714,-0.269797 1.65831,-0.522105 2.464993,-0.778549 l 1.859335,5.717485 3.437784,-1.116385 -1.838353,-5.657487 c 0.950209,-0.28717 1.866074,-0.576463 2.75756,-0.867031 l 1.828285,5.63194 3.441176,-1.118504 -1.853506,-5.708157 c 5.677663,-2.211788 9.253402,-4.985042 7.990941,-10.58142 -1.015479,-4.506676 -3.707647,-5.790057 -7.248066,-5.51161 1.665095,-1.664252 2.330874,-3.859657 1.070066,-6.747316 z m -0.84198,13.790705 c 1.390315,4.272453 -6.084225,6.163741 -8.415762,6.923752 l -2.460709,-7.576248 c 2.333126,-0.757467 9.428614,-3.804507 10.876471,0.652496 z M 36.125288,23.80479 c 1.262092,3.887979 -4.987269,5.416969 -6.92988,6.048333 l -2.232346,-6.871116 c 1.942611,-0.631364 7.844288,-3.231939 9.162226,0.822783 z"
       transform="matrix(1.7102115,0,0,1.838705,25.095695,48.880683)" />
  </g>
  <flowRoot
     style="fill:black;stroke:none;stroke-opacity:1;stroke-width:1px;stroke-linejoin:miter;stroke-linecap:butt;fill-opacity:1;font-family:sans-serif;font-style:normal;font-weight:normal;font-size:20px;line-height:125%;letter-spacing:0px;word-spacing:0px"
     id="flowRoot6516"
     xml:space="preserve"><flowRegion
       id="flowRegion6518"><rect
         y="66.906944"
         x="124.39299"
         height="70.970299"
         width="102.55598"
         id="rect6520" /></flowRegion><flowPara
       id="flowPara6522" /></flowRoot>  <text
     transform="rotate(-19.52932)"
     id="text6526"
     y="162.54726"
     x="71.099045"
     style="font-style:normal;font-variant:normal;font-weight:bold;font-stretch:normal;font-size:66.66666412px;line-height:125%;font-family:'Times New Roman';-inkscape-font-specification:'Times New Roman, Bold';font-variant-ligatures:normal;font-variant-caps:normal;font-variant-numeric:normal;font-feature-settings:normal;text-align:start;letter-spacing:0px;word-spacing:0px;writing-mode:lr-tb;text-anchor:start;opacity:1;fill:#f0f0f0;fill-opacity:1;stroke:none;stroke-width:0;stroke-linecap:butt;stroke-linejoin:miter;stroke-miterlimit:4;stroke-dasharray:none;stroke-opacity:1;"
     xml:space="preserve"><tspan
       y="162.54726"
       x="71.099045"
       id="tspan6524">CH</tspan></text>
  <text
     transform="rotate(-19.52932,3.6912871,-1.114485)"
     id="text6526-9"
     y="161.819"
     x="70.607651"
     style="font-style:normal;font-variant:normal;font-weight:bold;font-stretch:normal;font-size:66.66666412px;line-height:125%;font-family:'Times New Roman';-inkscape-font-specification:'Times New Roman, Bold';font-variant-ligatures:normal;font-variant-caps:normal;font-variant-numeric:normal;font-feature-settings:normal;text-align:start;letter-spacing:0px;word-spacing:0px;writing-mode:lr-tb;text-anchor:start;display:inline;opacity:1;fill:none;fill-opacity:1;stroke:#000000;stroke-width:2.29999995;stroke-linecap:butt;stroke-linejoin:miter;stroke-miterlimit:4;stroke-dasharray:none;stroke-opacity:0.31372549;filter:url(#filter6727)"
     xml:space="preserve"><tspan
       y="161.819"
       x="70.607651"
       id="tspan6524-1">CH</tspan></text>
  <text
     transform="rotate(-19.52932,-0.46898781,-0.6639571)"
     id="text6526-1-3"
     y="225.51016"
     x="11.486782"
     style="font-style:normal;font-variant:normal;font-weight:bold;font-stretch:normal;font-size:66.66666412px;line-height:125%;font-family:'Times New Roman';-inkscape-font-specification:'Times New Roman, Bold';font-variant-ligatures:normal;font-variant-caps:normal;font-variant-numeric:normal;font-feature-settings:normal;text-align:start;letter-spacing:0px;word-spacing:0px;writing-mode:lr-tb;text-anchor:start;opacity:1;fill:none;fill-opacity:1;stroke:#000000;stroke-width:6;stroke-linecap:butt;stroke-linejoin:miter;stroke-miterlimit:4;stroke-dasharray:none;stroke-opacity:0.24946696;filter:url(#filter6788)"
     xml:space="preserve"><tspan
       y="225.51016"
       x="11.486782"
       id="tspan6741-0">NEXT</tspan></text>
  <text
     transform="rotate(-19.52932)"
     id="text6526-1"
     y="225.50424"
     x="11.608893"
     style="font-style:normal;font-variant:normal;font-weight:bold;font-stretch:normal;font-size:66.66666667px;line-height:125%;font-family:'Times New Roman';-inkscape-font-specification:'Times New Roman, Bold';font-variant-ligatures:normal;font-variant-caps:normal;font-variant-numeric:normal;font-feature-settings:normal;text-align:start;letter-spacing:0px;word-spacing:0px;writing-mode:lr;text-anchor:start;opacity:1;fill:#ffffff;fill-opacity:1;stroke:#ffffff;stroke-width:1;stroke-linecap:butt;stroke-linejoin:miter;stroke-miterlimit:4;stroke-dasharray:none;stroke-opacity:1;"
     xml:space="preserve"><tspan
       y="225.50424"
       x="11.608893"
       id="tspan6741">NEXT</tspan></text>
</svg>
